<mxfile host="Electron" agent="Mozilla/5.0 (Windows NT 10.0; Win64; x64) AppleWebKit/537.36 (KHTML, like Gecko) draw.io/24.7.5 Chrome/126.0.6478.183 Electron/31.3.0 Safari/537.36" version="24.7.5">
  <diagram name="第 1 页" id="MUYO5bvJp8h2161Trcz_">
    <mxGraphModel dx="2074" dy="1204" grid="1" gridSize="10" guides="1" tooltips="1" connect="1" arrows="1" fold="1" page="1" pageScale="1" pageWidth="827" pageHeight="1169" math="0" shadow="0">
      <root>
        <mxCell id="0" />
        <mxCell id="1" parent="0" />
        <mxCell id="DW2_CxJmb-G6JmsQTJQ1-1" value="" style="rounded=0;whiteSpace=wrap;html=1;" parent="1" vertex="1">
          <mxGeometry x="430" y="370" width="290" height="50" as="geometry" />
        </mxCell>
        <mxCell id="DW2_CxJmb-G6JmsQTJQ1-2" value="BroadcastReceiver" style="text;html=1;align=center;verticalAlign=middle;whiteSpace=wrap;rounded=0;" parent="1" vertex="1">
          <mxGeometry x="545" y="340" width="60" height="30" as="geometry" />
        </mxCell>
        <mxCell id="DW2_CxJmb-G6JmsQTJQ1-4" value="onReceiver（）" style="text;html=1;align=center;verticalAlign=middle;whiteSpace=wrap;rounded=0;" parent="1" vertex="1">
          <mxGeometry x="525" y="380" width="100" height="30" as="geometry" />
        </mxCell>
        <mxCell id="DW2_CxJmb-G6JmsQTJQ1-5" value="" style="endArrow=classic;html=1;rounded=0;entryX=0;entryY=0.5;entryDx=0;entryDy=0;" parent="1" target="DW2_CxJmb-G6JmsQTJQ1-4" edge="1">
          <mxGeometry width="50" height="50" relative="1" as="geometry">
            <mxPoint x="380" y="270" as="sourcePoint" />
            <mxPoint x="500" y="590" as="targetPoint" />
            <Array as="points">
              <mxPoint x="380" y="395" />
            </Array>
          </mxGeometry>
        </mxCell>
        <mxCell id="DW2_CxJmb-G6JmsQTJQ1-6" value="" style="rounded=0;whiteSpace=wrap;html=1;" parent="1" vertex="1">
          <mxGeometry x="430" y="460" width="290" height="50" as="geometry" />
        </mxCell>
        <mxCell id="DW2_CxJmb-G6JmsQTJQ1-7" value="BroadcastReceiver" style="text;html=1;align=center;verticalAlign=middle;whiteSpace=wrap;rounded=0;" parent="1" vertex="1">
          <mxGeometry x="545" y="430" width="60" height="30" as="geometry" />
        </mxCell>
        <mxCell id="DW2_CxJmb-G6JmsQTJQ1-8" value="onReceiver（）" style="text;html=1;align=center;verticalAlign=middle;whiteSpace=wrap;rounded=0;" parent="1" vertex="1">
          <mxGeometry x="525" y="470" width="100" height="30" as="geometry" />
        </mxCell>
        <mxCell id="DW2_CxJmb-G6JmsQTJQ1-9" value="" style="rounded=0;whiteSpace=wrap;html=1;" parent="1" vertex="1">
          <mxGeometry x="430" y="550" width="290" height="50" as="geometry" />
        </mxCell>
        <mxCell id="DW2_CxJmb-G6JmsQTJQ1-10" value="BroadcastReceiver" style="text;html=1;align=center;verticalAlign=middle;whiteSpace=wrap;rounded=0;" parent="1" vertex="1">
          <mxGeometry x="545" y="520" width="60" height="30" as="geometry" />
        </mxCell>
        <mxCell id="DW2_CxJmb-G6JmsQTJQ1-11" value="onReceiver（）" style="text;html=1;align=center;verticalAlign=middle;whiteSpace=wrap;rounded=0;" parent="1" vertex="1">
          <mxGeometry x="525" y="560" width="100" height="30" as="geometry" />
        </mxCell>
        <mxCell id="DW2_CxJmb-G6JmsQTJQ1-12" value="" style="endArrow=classic;html=1;rounded=0;entryX=0;entryY=0.5;entryDx=0;entryDy=0;" parent="1" target="DW2_CxJmb-G6JmsQTJQ1-8" edge="1">
          <mxGeometry width="50" height="50" relative="1" as="geometry">
            <mxPoint x="380" y="390" as="sourcePoint" />
            <mxPoint x="500" y="590" as="targetPoint" />
            <Array as="points">
              <mxPoint x="380" y="485" />
            </Array>
          </mxGeometry>
        </mxCell>
        <mxCell id="DW2_CxJmb-G6JmsQTJQ1-13" value="" style="endArrow=classic;html=1;rounded=0;" parent="1" target="DW2_CxJmb-G6JmsQTJQ1-11" edge="1">
          <mxGeometry width="50" height="50" relative="1" as="geometry">
            <mxPoint x="380" y="480" as="sourcePoint" />
            <mxPoint x="440" y="520" as="targetPoint" />
            <Array as="points">
              <mxPoint x="380" y="575" />
            </Array>
          </mxGeometry>
        </mxCell>
        <mxCell id="DW2_CxJmb-G6JmsQTJQ1-14" value="intent" style="text;html=1;align=center;verticalAlign=middle;whiteSpace=wrap;rounded=0;" parent="1" vertex="1">
          <mxGeometry x="370" y="300" width="60" height="30" as="geometry" />
        </mxCell>
        <mxCell id="jlfxmXxTC6LtIax7KMtM-1" value="" style="rounded=0;whiteSpace=wrap;html=1;" vertex="1" parent="1">
          <mxGeometry x="1100" y="420" width="730" height="420" as="geometry" />
        </mxCell>
        <mxCell id="jlfxmXxTC6LtIax7KMtM-9" style="edgeStyle=orthogonalEdgeStyle;rounded=0;orthogonalLoop=1;jettySize=auto;html=1;exitX=0.5;exitY=1;exitDx=0;exitDy=0;" edge="1" parent="1" source="jlfxmXxTC6LtIax7KMtM-2" target="jlfxmXxTC6LtIax7KMtM-5">
          <mxGeometry relative="1" as="geometry" />
        </mxCell>
        <mxCell id="jlfxmXxTC6LtIax7KMtM-2" value="调用&lt;div&gt;startService()&lt;/div&gt;" style="rounded=1;whiteSpace=wrap;html=1;" vertex="1" parent="1">
          <mxGeometry x="1200" y="260" width="120" height="60" as="geometry" />
        </mxCell>
        <mxCell id="jlfxmXxTC6LtIax7KMtM-10" style="edgeStyle=orthogonalEdgeStyle;rounded=0;orthogonalLoop=1;jettySize=auto;html=1;exitX=0.5;exitY=1;exitDx=0;exitDy=0;entryX=0.5;entryY=0;entryDx=0;entryDy=0;" edge="1" parent="1" source="jlfxmXxTC6LtIax7KMtM-3" target="jlfxmXxTC6LtIax7KMtM-7">
          <mxGeometry relative="1" as="geometry" />
        </mxCell>
        <mxCell id="jlfxmXxTC6LtIax7KMtM-3" value="调用&lt;div&gt;startService()&lt;/div&gt;" style="rounded=1;whiteSpace=wrap;html=1;" vertex="1" parent="1">
          <mxGeometry x="1605" y="260" width="120" height="60" as="geometry" />
        </mxCell>
        <mxCell id="jlfxmXxTC6LtIax7KMtM-22" style="edgeStyle=orthogonalEdgeStyle;rounded=0;orthogonalLoop=1;jettySize=auto;html=1;exitX=0.5;exitY=1;exitDx=0;exitDy=0;entryX=0.5;entryY=0;entryDx=0;entryDy=0;" edge="1" parent="1" source="jlfxmXxTC6LtIax7KMtM-5" target="jlfxmXxTC6LtIax7KMtM-12">
          <mxGeometry relative="1" as="geometry" />
        </mxCell>
        <mxCell id="jlfxmXxTC6LtIax7KMtM-5" value="onCreate()" style="rounded=0;whiteSpace=wrap;html=1;" vertex="1" parent="1">
          <mxGeometry x="1200" y="360" width="120" height="40" as="geometry" />
        </mxCell>
        <mxCell id="jlfxmXxTC6LtIax7KMtM-27" style="edgeStyle=orthogonalEdgeStyle;rounded=0;orthogonalLoop=1;jettySize=auto;html=1;exitX=0.5;exitY=1;exitDx=0;exitDy=0;entryX=0.5;entryY=0;entryDx=0;entryDy=0;" edge="1" parent="1" source="jlfxmXxTC6LtIax7KMtM-7" target="jlfxmXxTC6LtIax7KMtM-15">
          <mxGeometry relative="1" as="geometry" />
        </mxCell>
        <mxCell id="jlfxmXxTC6LtIax7KMtM-7" value="onCreate()" style="rounded=0;whiteSpace=wrap;html=1;" vertex="1" parent="1">
          <mxGeometry x="1580" y="360" width="170" height="40" as="geometry" />
        </mxCell>
        <mxCell id="jlfxmXxTC6LtIax7KMtM-23" style="edgeStyle=orthogonalEdgeStyle;rounded=0;orthogonalLoop=1;jettySize=auto;html=1;exitX=0.5;exitY=1;exitDx=0;exitDy=0;entryX=0.5;entryY=0;entryDx=0;entryDy=0;" edge="1" parent="1" source="jlfxmXxTC6LtIax7KMtM-12" target="jlfxmXxTC6LtIax7KMtM-13">
          <mxGeometry relative="1" as="geometry" />
        </mxCell>
        <mxCell id="jlfxmXxTC6LtIax7KMtM-12" value="onStartCommand()" style="rounded=0;whiteSpace=wrap;html=1;" vertex="1" parent="1">
          <mxGeometry x="1175" y="480" width="170" height="40" as="geometry" />
        </mxCell>
        <mxCell id="jlfxmXxTC6LtIax7KMtM-24" style="edgeStyle=orthogonalEdgeStyle;rounded=0;orthogonalLoop=1;jettySize=auto;html=1;exitX=0.5;exitY=1;exitDx=0;exitDy=0;entryX=0.5;entryY=0;entryDx=0;entryDy=0;" edge="1" parent="1" source="jlfxmXxTC6LtIax7KMtM-13" target="jlfxmXxTC6LtIax7KMtM-14">
          <mxGeometry relative="1" as="geometry" />
        </mxCell>
        <mxCell id="jlfxmXxTC6LtIax7KMtM-13" value="Service运行" style="rounded=1;whiteSpace=wrap;html=1;" vertex="1" parent="1">
          <mxGeometry x="1170.5" y="570" width="179" height="110" as="geometry" />
        </mxCell>
        <mxCell id="jlfxmXxTC6LtIax7KMtM-25" style="edgeStyle=orthogonalEdgeStyle;rounded=0;orthogonalLoop=1;jettySize=auto;html=1;exitX=0.5;exitY=1;exitDx=0;exitDy=0;entryX=0.5;entryY=0;entryDx=0;entryDy=0;" edge="1" parent="1" source="jlfxmXxTC6LtIax7KMtM-14" target="jlfxmXxTC6LtIax7KMtM-18">
          <mxGeometry relative="1" as="geometry" />
        </mxCell>
        <mxCell id="jlfxmXxTC6LtIax7KMtM-14" value="Service被自己&lt;div&gt;或调用者停止&lt;/div&gt;" style="rounded=0;whiteSpace=wrap;html=1;" vertex="1" parent="1">
          <mxGeometry x="1200" y="730" width="120" height="60" as="geometry" />
        </mxCell>
        <mxCell id="jlfxmXxTC6LtIax7KMtM-28" style="edgeStyle=orthogonalEdgeStyle;rounded=0;orthogonalLoop=1;jettySize=auto;html=1;exitX=0.5;exitY=1;exitDx=0;exitDy=0;" edge="1" parent="1" source="jlfxmXxTC6LtIax7KMtM-15" target="jlfxmXxTC6LtIax7KMtM-16">
          <mxGeometry relative="1" as="geometry" />
        </mxCell>
        <mxCell id="jlfxmXxTC6LtIax7KMtM-15" value="onBind()" style="rounded=0;whiteSpace=wrap;html=1;" vertex="1" parent="1">
          <mxGeometry x="1580" y="480" width="170" height="40" as="geometry" />
        </mxCell>
        <mxCell id="jlfxmXxTC6LtIax7KMtM-29" style="edgeStyle=orthogonalEdgeStyle;rounded=0;orthogonalLoop=1;jettySize=auto;html=1;exitX=0.5;exitY=1;exitDx=0;exitDy=0;entryX=0.5;entryY=0;entryDx=0;entryDy=0;" edge="1" parent="1" source="jlfxmXxTC6LtIax7KMtM-16" target="jlfxmXxTC6LtIax7KMtM-17">
          <mxGeometry relative="1" as="geometry" />
        </mxCell>
        <mxCell id="jlfxmXxTC6LtIax7KMtM-16" value="客户端绑定到&lt;div&gt;Service&lt;/div&gt;" style="rounded=1;whiteSpace=wrap;html=1;" vertex="1" parent="1">
          <mxGeometry x="1575.5" y="570" width="179" height="110" as="geometry" />
        </mxCell>
        <mxCell id="jlfxmXxTC6LtIax7KMtM-30" style="edgeStyle=orthogonalEdgeStyle;rounded=0;orthogonalLoop=1;jettySize=auto;html=1;exitX=0.5;exitY=1;exitDx=0;exitDy=0;entryX=0.5;entryY=0;entryDx=0;entryDy=0;" edge="1" parent="1" source="jlfxmXxTC6LtIax7KMtM-17" target="jlfxmXxTC6LtIax7KMtM-19">
          <mxGeometry relative="1" as="geometry" />
        </mxCell>
        <mxCell id="jlfxmXxTC6LtIax7KMtM-17" value="调用Unbind()&lt;div&gt;取消绑定&lt;/div&gt;" style="rounded=0;whiteSpace=wrap;html=1;" vertex="1" parent="1">
          <mxGeometry x="1605" y="730" width="120" height="60" as="geometry" />
        </mxCell>
        <mxCell id="jlfxmXxTC6LtIax7KMtM-26" style="edgeStyle=orthogonalEdgeStyle;rounded=0;orthogonalLoop=1;jettySize=auto;html=1;exitX=0.5;exitY=1;exitDx=0;exitDy=0;entryX=0.5;entryY=0;entryDx=0;entryDy=0;" edge="1" parent="1" source="jlfxmXxTC6LtIax7KMtM-18" target="jlfxmXxTC6LtIax7KMtM-20">
          <mxGeometry relative="1" as="geometry" />
        </mxCell>
        <mxCell id="jlfxmXxTC6LtIax7KMtM-18" value="onDestory()" style="rounded=0;whiteSpace=wrap;html=1;" vertex="1" parent="1">
          <mxGeometry x="1185" y="870" width="150" height="40" as="geometry" />
        </mxCell>
        <mxCell id="jlfxmXxTC6LtIax7KMtM-31" style="edgeStyle=orthogonalEdgeStyle;rounded=0;orthogonalLoop=1;jettySize=auto;html=1;exitX=0.5;exitY=1;exitDx=0;exitDy=0;entryX=0.5;entryY=0;entryDx=0;entryDy=0;" edge="1" parent="1" source="jlfxmXxTC6LtIax7KMtM-19" target="jlfxmXxTC6LtIax7KMtM-21">
          <mxGeometry relative="1" as="geometry" />
        </mxCell>
        <mxCell id="jlfxmXxTC6LtIax7KMtM-19" value="onDestory()" style="rounded=0;whiteSpace=wrap;html=1;" vertex="1" parent="1">
          <mxGeometry x="1590" y="870" width="150" height="40" as="geometry" />
        </mxCell>
        <mxCell id="jlfxmXxTC6LtIax7KMtM-20" value="Service被关闭" style="rounded=1;whiteSpace=wrap;html=1;" vertex="1" parent="1">
          <mxGeometry x="1200" y="940" width="120" height="60" as="geometry" />
        </mxCell>
        <mxCell id="jlfxmXxTC6LtIax7KMtM-21" value="Service被关闭" style="rounded=1;whiteSpace=wrap;html=1;" vertex="1" parent="1">
          <mxGeometry x="1605" y="940" width="120" height="60" as="geometry" />
        </mxCell>
      </root>
    </mxGraphModel>
  </diagram>
</mxfile>
